<svg width="176" height="88" xmlns="http://www.w3.org/2000/svg" xmlns:xlink="http://www.w3.org/1999/xlink" overflow="hidden"><defs><clipPath id="clip0"><rect x="43" y="85" width="176" height="88"/></clipPath></defs><g clip-path="url(#clip0)" transform="translate(-43 -85)"><path d="M65.5 86 88 97.25 88 123.75 65.5 135 43 123.75 43 97.25Z" fill="#7F7F7F" fill-rule="evenodd"/><path d="M196 85.9999 218 96.9999 218 124 196 135 174 124 174 96.9999Z" fill="#7F7F7F" fill-rule="evenodd"/><path d="M153 85.9999 175 96.9999 175 124 153 135 131 124 131 96.9999Z" fill="#7F7F7F" fill-rule="evenodd"/><path d="M174 124 196 135 196 161 174 172 152 161 152 135Z" fill="#7F7F7F" fill-rule="evenodd"/><path d="M108.5 86 131 97.25 131 123.75 108.5 135 86 123.75 86 97.25Z" fill="#7F7F7F" fill-rule="evenodd"/></g></svg>