<svg width="178" height="88" xmlns="http://www.w3.org/2000/svg" xmlns:xlink="http://www.w3.org/1999/xlink" overflow="hidden"><defs><clipPath id="clip0"><rect x="44" y="182" width="178" height="88"/></clipPath></defs><g clip-path="url(#clip0)" transform="translate(-44 -182)"><path d="M133 220 155 231 155 258 133 269 111 258 111 231Z" fill="#7F7F7F" fill-rule="evenodd"/><path d="M198.5 182 221 193.25 221 219.75 198.5 231 176 219.75 176 193.25Z" fill="#7F7F7F" fill-rule="evenodd"/><path d="M67 183 89.0001 194 89.0001 221 67 232 45.0001 221 45.0001 194Z" fill="#7F7F7F" fill-rule="evenodd"/><path d="M110 183 132 194 132 221 110 232 88 221 88 194Z" fill="#7F7F7F" fill-rule="evenodd"/><path d="M154 182 176 193 176 220 154 231 132 220 132 193Z" fill="#7F7F7F" fill-rule="evenodd"/></g></svg>