<svg width="87" height="122" xmlns="http://www.w3.org/2000/svg" xmlns:xlink="http://www.w3.org/1999/xlink" overflow="hidden"><defs><clipPath id="clip0"><rect x="323" y="25" width="87" height="122"/></clipPath></defs><g clip-path="url(#clip0)" transform="translate(-323 -25)"><path d="M344.5 97.9999 366 108.75 366 135.25 344.5 146 323 135.25 323 108.75Z" fill="#7F7F7F" fill-rule="evenodd"/><path d="M388 98 410 109 410 135 388 146 366 135 366 109Z" fill="#7F7F7F" fill-rule="evenodd"/><path d="M345.5 25.9999 367 36.7499 367 63.25 345.5 73.9999 324 63.25 324 36.7499Z" fill="#7F7F7F" fill-rule="evenodd"/><path d="M387.5 25.9999 409 36.7499 409 63.25 387.5 73.9999 366 63.25 366 36.7499Z" fill="#7F7F7F" fill-rule="evenodd"/><path d="M366 62 388 73 388 99 366 110 344 99 344 73Z" fill="#7F7F7F" fill-rule="evenodd"/></g></svg>