<svg width="117" height="130" xmlns="http://www.w3.org/2000/svg" xmlns:xlink="http://www.w3.org/1999/xlink" overflow="hidden"><defs><clipPath id="clip0"><rect x="64" y="298" width="117" height="130"/></clipPath></defs><g clip-path="url(#clip0)" transform="translate(-64 -298)"><path d="M111.5 299 135 310.75 135 338.25 111.5 350 88 338.25 88 310.75Z" fill="#7F7F7F" fill-rule="evenodd"/><path d="M156.5 376 180 387.75 180 415.25 156.5 427 133 415.25 133 387.75Z" fill="#7F7F7F" fill-rule="evenodd"/><path d="M88.0001 338 111 349.5 111 377.5 88.0001 389 65.0001 377.5 65.0001 349.5Z" fill="#7F7F7F" fill-rule="evenodd"/><path d="M111 375 134 386.5 134 415.5 111 427 88 415.5 88 386.5Z" fill="#7F7F7F" fill-rule="evenodd"/><path d="M156.5 298 180 309.75 180 338.25 156.5 350 133 338.25 133 309.75Z" fill="#7F7F7F" fill-rule="evenodd"/></g></svg>