<svg width="121" height="175" xmlns="http://www.w3.org/2000/svg" xmlns:xlink="http://www.w3.org/1999/xlink" overflow="hidden"><defs><clipPath id="clip0"><rect x="288" y="323" width="121" height="175"/></clipPath></defs><g clip-path="url(#clip0)" transform="translate(-288 -323)"><path d="M336.5 444 361 456.25 361 484.75 336.5 497 312 484.75 312 456.25Z" fill="#7F7F7F" fill-rule="evenodd"/><path d="M361.5 403 386 415.25 386 444.75 361.5 457 337 444.75 337 415.25Z" fill="#7F7F7F" fill-rule="evenodd"/><path d="M313 323 337 335 337 365 313 377 289 365 289 335Z" fill="#7F7F7F" fill-rule="evenodd"/><path d="M337.5 363 362 375.25 362 404.75 337.5 417 313 404.75 313 375.25Z" fill="#7F7F7F" fill-rule="evenodd"/><path d="M384 363 408 375 408 404 384 416 360 404 360 375Z" fill="#7F7F7F" fill-rule="evenodd"/></g></svg>