<svg width="145" height="144" xmlns="http://www.w3.org/2000/svg" xmlns:xlink="http://www.w3.org/1999/xlink" overflow="hidden"><defs><clipPath id="clip0"><rect x="300" y="177" width="145" height="144"/></clipPath></defs><g clip-path="url(#clip0)" transform="translate(-300 -177)"><path d="M326.195 238.278 348.407 222.607 374.098 236.4 373.307 263.573 351.094 279.244 325.404 265.451Z" fill="#7F7F7F" fill-rule="evenodd"/><path d="M349.132 195.557 371.345 179.885 397.035 193.678 396.245 220.851 374.032 236.523 348.342 222.729Z" fill="#7F7F7F" fill-rule="evenodd"/><path d="M396.24 193.034 418.453 177.362 444.143 191.155 443.352 218.328 421.14 234 395.449 220.207Z" fill="#7F7F7F" fill-rule="evenodd"/><path d="M349.507 278.963 371.72 263.292 397.41 277.085 396.62 304.258 374.407 319.929 348.717 306.136Z" fill="#7F7F7F" fill-rule="evenodd"/><path d="M301.655 198.121 323.868 182.45 349.558 196.243 348.768 223.416 326.555 239.087 300.865 225.294Z" fill="#7F7F7F" fill-rule="evenodd"/></g></svg>